<svg width="435" height="437" viewBox="0 0 435 437" version="1.1" xmlns="http://www.w3.org/2000/svg"
     xmlns:xlink="http://www.w3.org/1999/xlink" xmlns:figma="http://www.figma.com/figma/ns">
  <title>application</title>
  <desc>Created using Figma</desc>
  <g id="Canvas" transform="translate(726 395)" figma:type="canvas">
    <g id="application" figma:type="frame">
      <g id="Group" figma:type="frame">
        <g id="Vector" figma:type="vector">
          <use xlink:href="#path0_fill" transform="translate(-686.189 -395)" fill="#333333"/>
        </g>
        <g id="Vector" figma:type="vector">
          <use xlink:href="#path1_fill" transform="translate(-726 -220.819)" fill="#333333"/>
        </g>
      </g>
    </g>
  </g>
  <defs>
    <path id="path0_fill" fill-rule="evenodd"
          d="M 167.178 362.641L 368.818 362.641C 383.182 362.641 394.828 351.001 394.828 336.643L 394.828 111.133C 394.828 96.772 387.38 76.192 378.193 65.161L 328.4 5.374C 325.932 2.411 320.792 -4.74953e-11 316.928 -4.74953e-11L 81.148 -4.74953e-11C 76.181 -4.74953e-11 69.536 3.071 66.312 6.859L 16.541 65.339C 7.23897 76.268 -0.17003 96.778 0.00297041 111.136L 1.25897 215.196C 20.714 180.518 57.839 157.086 100.449 157.086C 163.211 157.086 214.089 207.946 214.089 270.686C 214.089 308.5 195.606 341.996 167.179 362.646L 167.178 362.641ZM 79.559 11.906L 318.269 11.906L 335.776 33.006L 254.476 33.006L 259.471 51.782L 351.351 51.782L 369.361 73.485L 30.321 73.485L 49.194 49.878C 49.194 49.878 130.484 52.184 132.324 49.878C 133.053 48.966 142.917 32.22 142.917 32.22L 63.317 32.22L 79.557 11.906"/>
    <path id="path1_fill" fill-rule="evenodd"
          d="M 62.3887 156.68L 7.03867 216.07C -2.75433 226.577 -2.26833 243.13 8.12067 253.047L 10.1837 255.016C 20.5777 264.939 36.6627 264.214 46.1237 253.411L 100.504 191.311C 101.444 190.238 102.299 189.091 103.07 187.885C 114.42 192.523 126.839 195.08 139.855 195.08C 193.651 195.08 237.265 151.411 237.265 97.54C 237.265 43.672 193.655 -7.32422e-06 139.855 -7.32422e-06C 86.0587 -7.32422e-06 42.4447 43.669 42.4447 97.54C 42.4447 119.78 49.8757 140.276 62.3877 156.68L 62.3887 156.68ZM 139.408 167.69C 178.261 167.69 209.758 136.206 209.758 97.37C 209.758 58.532 178.262 27.05 139.408 27.05C 100.555 27.05 69.0577 58.534 69.0577 97.37C 69.0577 136.208 100.554 167.69 139.408 167.69Z"/>
  </defs>
</svg>
