<svg width="500" height="500" viewBox="0 0 500 500" xmlns="http://www.w3.org/2000/svg">
  <g fill="#fff" fill-rule="evenodd" transform="translate(17 34)">
    <path
        d="m207.11 362.64h201.64c14.364 0 26.01-11.64 26.01-25.998v-225.51c0-14.361-7.448-34.941-16.635-45.972l-49.793-59.787c-2.468-2.963-7.608-5.374-11.472-5.374h-235.78c-4.967 0-11.612 3.071-14.836 6.859l-49.771 58.48c-9.302 10.929-16.711 31.439-16.538 45.797l1.256 104.06c19.455-34.678 56.58-58.11 99.19-58.11 62.762 0 113.64 50.86 113.64 113.6 0 37.814-18.483 71.31-46.91 91.96m-87.62-350.74h238.71l17.507 21.1h-81.3l4.995 18.776h91.88l18.01 21.703h-339.04l18.873-23.607c0 0 81.29 2.306 83.13 0 .729-.912 10.593-17.658 10.593-17.658h-79.6l16.24-20.314"/>
    <path
        d="m62.51 330.86l-55.35 59.39c-9.793 10.507-9.307 27.06 1.082 36.977l2.063 1.969c10.394 9.923 26.479 9.198 35.94-1.605l54.38-62.1c.94-1.073 1.795-2.22 2.566-3.426 11.35 4.638 23.769 7.195 36.785 7.195 53.796 0 97.41-43.669 97.41-97.54 0-53.868-43.61-97.54-97.41-97.54-53.796 0-97.41 43.669-97.41 97.54 0 22.24 7.431 42.736 19.943 59.14m77.02 11.01c38.853 0 70.35-31.484 70.35-70.32 0-38.838-31.496-70.32-70.35-70.32-38.853 0-70.35 31.484-70.35 70.32 0 38.838 31.496 70.32 70.35 70.32"/>
  </g>
</svg>